<svg xmlns="http://www.w3.org/2000/svg" viewBox="0 0 360 220" fill="none" role="img" aria-hidden="true">
  <rect width="360" height="220" fill="#10283d"/>
  <g stroke="#3d7ea6" stroke-width="0.5" opacity="0.3">
    <path d="M0 55H360M0 110H360M0 165H360"/>
    <path d="M60 0V220M120 0V220M180 0V220M240 0V220M300 0V220"/>
  </g>
  <circle cx="180" cy="110" r="16" fill="#e8f4fc"/>
  <circle cx="100" cy="70" r="12" fill="#1a4560" stroke="#9fd0ea"/>
  <circle cx="260" cy="70" r="12" fill="#1a4560" stroke="#9fd0ea"/>
  <circle cx="90" cy="150" r="12" fill="#1a4560" stroke="#7eb8d8"/>
  <circle cx="180" cy="170" r="12" fill="#1a4560" stroke="#7eb8d8"/>
  <circle cx="270" cy="150" r="12" fill="#1a4560" stroke="#7eb8d8"/>
  <path d="M168 100L112 78M192 100L248 78M168 120L102 144M180 126V158M192 120L258 144" stroke="#c5e4f5" stroke-width="1.3"/>
  <text x="16" y="24" fill="#9fd0ea" font-family="ui-monospace,monospace" font-size="10">KNOWLEDGE GRAPH</text>
</svg>
